<svg xmlns="http://www.w3.org/2000/svg" class="hit-svg" viewBox="0 0 360 336" width="360" height="336" role="img" aria-label="Share of the explored HIT-ASR configurations that stayed on the best single expert, by training objective: soft CE only 7 %; WER + hard CE 8 %; WER + soft CE, τ = 1 17 %; WER + hard CE + soft CE 24 %; hard CE only 30 %; WER + soft CE, τ = 0.1 39 %; WER only 86 %." font-family="Schibsted Grotesk, -apple-system, Segoe UI, Helvetica, Arial, sans-serif"><line x1="0" y1="8" x2="0" y2="306" fill="none" stroke="#eceef1" stroke-width="1" class="s-grid"/><text x="8" y="322" font-size="10.5" text-anchor="middle" fill="#6b7180" class="f-muted">0 %</text><line x1="75" y1="8" x2="75" y2="306" fill="none" stroke="#eceef1" stroke-width="1" class="s-grid"/><text x="75" y="322" font-size="10.5" text-anchor="middle" fill="#6b7180" class="f-muted">25 %</text><line x1="150" y1="8" x2="150" y2="306" fill="none" stroke="#eceef1" stroke-width="1" class="s-grid"/><text x="150" y="322" font-size="10.5" text-anchor="middle" fill="#6b7180" class="f-muted">50 %</text><line x1="225" y1="8" x2="225" y2="306" fill="none" stroke="#eceef1" stroke-width="1" class="s-grid"/><text x="225" y="322" font-size="10.5" text-anchor="middle" fill="#6b7180" class="f-muted">75 %</text><line x1="300" y1="8" x2="300" y2="306" fill="none" stroke="#eceef1" stroke-width="1" class="s-grid"/><text x="300" y="322" font-size="10.5" text-anchor="middle" fill="#6b7180" class="f-muted">100 %</text><text x="0" y="18" font-size="11.5" fill="#434a5a" class="f-ink2">soft CE only</text><path d="M0 25H18A3 3 0 0 1 21 28V34A3 3 0 0 1 18 37H0Z" fill="#3355d6" class="f-accent"><title>soft CE only: 7 % collapsed</title></path><text x="27" y="35" font-size="11" font-weight="600" fill="#1c2230" class="f-ink">7 %</text><text x="0" y="60" font-size="11.5" fill="#434a5a" class="f-ink2">WER + hard CE</text><path d="M0 67H21A3 3 0 0 1 24 70V76A3 3 0 0 1 21 79H0Z" fill="#3355d6" class="f-accent"><title>WER + hard CE: 8 % collapsed</title></path><text x="30" y="77" font-size="11" font-weight="600" fill="#1c2230" class="f-ink">8 %</text><text x="0" y="102" font-size="11.5" fill="#434a5a" class="f-ink2">WER + soft CE, τ = 1</text><path d="M0 109H48A3 3 0 0 1 51 112V118A3 3 0 0 1 48 121H0Z" fill="#3355d6" class="f-accent"><title>WER + soft CE, τ = 1: 17 % collapsed</title></path><text x="57" y="119" font-size="11" font-weight="600" fill="#1c2230" class="f-ink">17 %</text><text x="0" y="144" font-size="11.5" fill="#434a5a" class="f-ink2">WER + hard CE + soft CE</text><path d="M0 151H69A3 3 0 0 1 72 154V160A3 3 0 0 1 69 163H0Z" fill="#3355d6" class="f-accent"><title>WER + hard CE + soft CE: 24 % collapsed</title></path><text x="78" y="161" font-size="11" font-weight="600" fill="#1c2230" class="f-ink">24 %</text><text x="0" y="186" font-size="11.5" fill="#434a5a" class="f-ink2">hard CE only</text><path d="M0 193H87A3 3 0 0 1 90 196V202A3 3 0 0 1 87 205H0Z" fill="#3355d6" class="f-accent"><title>hard CE only: 30 % collapsed</title></path><text x="96" y="203" font-size="11" font-weight="600" fill="#1c2230" class="f-ink">30 %</text><text x="0" y="228" font-size="11.5" fill="#434a5a" class="f-ink2">WER + soft CE, τ = 0.1</text><path d="M0 235H114A3 3 0 0 1 117 238V244A3 3 0 0 1 114 247H0Z" fill="#3355d6" class="f-accent"><title>WER + soft CE, τ = 0.1: 39 % collapsed</title></path><text x="123" y="245" font-size="11" font-weight="600" fill="#1c2230" class="f-ink">39 %</text><text x="0" y="270" font-size="11.5" fill="#434a5a" class="f-ink2">WER only</text><path d="M0 277H255A3 3 0 0 1 258 280V286A3 3 0 0 1 255 289H0Z" fill="#3355d6" class="f-accent"><title>WER only: 86 % collapsed</title></path><text x="264" y="287" font-size="11" font-weight="600" fill="#1c2230" class="f-ink">86 %</text></svg>
